<svg width="40" height="40" viewBox="0 0 40 40" fill="none" xmlns="http://www.w3.org/2000/svg">
<path d="M7.62717 32.9697L7.57275 33.0245L7.52424 33.0845L3.39998 38.1939L3.28864 38.3318C2.83377 38.6037 2.23026 38.5459 1.83857 38.1584C1.39606 37.7206 1.38732 37.0226 1.81236 36.5745L6.62924 32.3717L6.62927 32.3717L6.63797 32.364L6.77851 32.2394C6.88916 32.1601 7.02506 32.1153 7.16725 32.1153C7.34374 32.1153 7.5099 32.1842 7.63066 32.302C7.81399 32.4903 7.81283 32.7827 7.62717 32.9697ZM38.5 17.1553C38.5 21.3021 36.8351 25.2824 33.8663 28.2196C30.897 31.1573 26.8663 32.8106 22.6601 32.8106C13.8969 32.8106 6.8203 25.7864 6.8203 17.1553C6.8203 8.5242 13.8969 1.5 22.6601 1.5C31.4234 1.5 38.5 8.5242 38.5 17.1553Z" fill="#E8E8E8" stroke="#969696" stroke-width="3"/>
</svg>
